<svg id="katman_1" data-name="katman 1" xmlns="http://www.w3.org/2000/svg" width="35.2" height="22" viewBox="0 0 35.2 22">
  <defs>
    <style>
      .cls-1 {
        fill: #666;
      }
    </style>
  </defs>
  <title>behance_icon</title>
  <g id="Behance">
    <path class="cls-1" d="M9.38,11.44A5.21,5.21,0,0,0,11,10.22a4.74,4.74,0,0,0,1-3.16,5.41,5.41,0,0,0-1-3.28Q9.39,1.56,5.41,1.5H-5.1V23H4.7a15.3,15.3,0,0,0,3.07-.29,6,6,0,0,0,2.46-1.08,6,6,0,0,0,1.54-1.69,6.2,6.2,0,0,0,1-3.42,5.63,5.63,0,0,0-.85-3.14A4.88,4.88,0,0,0,9.38,11.44ZM-.76,5.23H4a8.34,8.34,0,0,1,2.57.33,1.92,1.92,0,0,1,1.17,2,2,2,0,0,1-.88,1.88,4.43,4.43,0,0,1-2.3.53H-.76ZM6.72,18.86a5.21,5.21,0,0,1-2.2.38H-.76V13.51H4.59a5.56,5.56,0,0,1,2.18.36,2.3,2.3,0,0,1,1.38,2.3A2.7,2.7,0,0,1,6.72,18.86Z" transform="translate(5.1 -1.5)"/>
    <rect class="cls-1" x="22.49" y="1" width="9.32" height="2.67"/>
    <path class="cls-1" d="M28.67,9.76a6.47,6.47,0,0,0-2.78-2.35,9.26,9.26,0,0,0-3.78-.75,7.83,7.83,0,0,0-5.75,2.2,8.54,8.54,0,0,0-2.21,6.33q0,4.4,2.46,6.35a8.82,8.82,0,0,0,5.66,2,7.88,7.88,0,0,0,6.05-2.31,5.19,5.19,0,0,0,1.56-2.87H25.58a3.46,3.46,0,0,1-.87,1.09,3.6,3.6,0,0,1-2.33.73,4.31,4.31,0,0,1-2.32-.6,3.79,3.79,0,0,1-1.68-3.35H30.1A20.14,20.14,0,0,0,30,13,7.67,7.67,0,0,0,28.67,9.76ZM18.48,13.45A4.29,4.29,0,0,1,19.6,11a3.37,3.37,0,0,1,2.51-.91,3.73,3.73,0,0,1,2.5.85,3.47,3.47,0,0,1,1.12,2.51Z" transform="translate(5.1 -1.5)"/>
  </g>
</svg>
