<svg id="katman_1" data-name="katman 1" xmlns="http://www.w3.org/2000/svg" width="162.99" height="15.24" viewBox="0 0 162.99 15.24">
  <title>ertan_duran_logo</title>
  <g>
    <g>
      <path d="M-126.13-14V-28.32h10.62v2.42h-7.72v3.17h7.19v2.41h-7.19v3.9h8V-14Z" transform="translate(147 29)" style="fill: #fff"/>
      <path d="M-112.78-14V-28.32h6.08a10.41,10.41,0,0,1,3.33.39,3.29,3.29,0,0,1,1.67,1.37,4.13,4.13,0,0,1,.63,2.26,3.82,3.82,0,0,1-.95,2.66,4.55,4.55,0,0,1-2.83,1.32,6.75,6.75,0,0,1,1.55,1.2,16.31,16.31,0,0,1,1.65,2.32L-99.91-14h-3.46l-2.09-3.12a20.19,20.19,0,0,0-1.52-2.1,2.22,2.22,0,0,0-.87-.6,4.77,4.77,0,0,0-1.46-.16h-.59v6Zm2.89-8.26h2.14a11,11,0,0,0,2.6-.18,1.56,1.56,0,0,0,.81-.61,1.86,1.86,0,0,0,.29-1.07,1.72,1.72,0,0,0-.39-1.17,1.77,1.77,0,0,0-1.09-.56q-.35,0-2.11,0h-2.26Z" transform="translate(147 29)" style="fill: #fff"/>
      <path d="M-95.13-14V-25.89h-4.25v-2.42H-88v2.42h-4.24V-14Z" transform="translate(147 29)" style="fill: #fff"/>
      <path d="M-74.71-14h-3.14l-1.25-3.25h-5.72L-86-14h-3.07l5.58-14.32h3.06ZM-80-19.66-82-25l-1.93,5.31Z" transform="translate(147 29)" style="fill: #fff"/>
      <path d="M-73.14-14V-28.32h2.81l5.86,9.56v-9.56h2.69V-14h-2.9l-5.77-9.34V-14Z" transform="translate(147 29)" style="fill: #fff"/>
      <path d="M-53.18-28.32h5.28a10.32,10.32,0,0,1,2.72.27A4.79,4.79,0,0,1-43-26.72a6.25,6.25,0,0,1,1.37,2.32A10.56,10.56,0,0,1-41.18-21a9.41,9.41,0,0,1-.44,3,6.31,6.31,0,0,1-1.53,2.53,5.08,5.08,0,0,1-2,1.14,8.75,8.75,0,0,1-2.56.3h-5.44Zm2.89,2.42v9.48h2.16a7.87,7.87,0,0,0,1.75-.14,2.67,2.67,0,0,0,1.17-.6,3,3,0,0,0,.76-1.38,9.34,9.34,0,0,0,.29-2.62,8.55,8.55,0,0,0-.29-2.55,3.28,3.28,0,0,0-.82-1.39,2.75,2.75,0,0,0-1.34-.67A13.09,13.09,0,0,0-49-25.89Z" transform="translate(147 29)" style="fill: #fff"/>
      <path d="M-38.75-28.32h2.89v7.75a16.06,16.06,0,0,0,.11,2.39,2.32,2.32,0,0,0,.88,1.41,3.08,3.08,0,0,0,1.91.53,2.91,2.91,0,0,0,1.86-.5A2,2,0,0,0-30.35-18a16.13,16.13,0,0,0,.13-2.43v-7.92h2.89v7.52a19.32,19.32,0,0,1-.23,3.64,4,4,0,0,1-.86,1.8,4.37,4.37,0,0,1-1.68,1.17,7.33,7.33,0,0,1-2.75.43A7.93,7.93,0,0,1-36-14.23a4.45,4.45,0,0,1-1.67-1.23A4,4,0,0,1-38.47-17a17.38,17.38,0,0,1-.28-3.63Z" transform="translate(147 29)" style="fill: #fff"/>
      <path d="M-24.28-14V-28.32h6.08a10.41,10.41,0,0,1,3.33.39,3.29,3.29,0,0,1,1.67,1.37,4.13,4.13,0,0,1,.63,2.26,3.82,3.82,0,0,1-.95,2.66,4.55,4.55,0,0,1-2.83,1.32,6.75,6.75,0,0,1,1.55,1.2,16.31,16.31,0,0,1,1.65,2.32L-11.41-14h-3.46L-17-17.12a20.19,20.19,0,0,0-1.52-2.1,2.22,2.22,0,0,0-.87-.6A4.77,4.77,0,0,0-20.8-20h-.59v6Zm2.89-8.26h2.14a11,11,0,0,0,2.6-.18,1.56,1.56,0,0,0,.81-.61,1.86,1.86,0,0,0,.29-1.07,1.72,1.72,0,0,0-.39-1.17A1.77,1.77,0,0,0-17-25.85q-.35,0-2.11,0h-2.26Z" transform="translate(147 29)" style="fill: #fff"/>
      <path d="M3.07-14H-.08l-1.25-3.25H-7.05L-8.23-14H-11.3l5.58-14.32h3.06Zm-5.32-5.66-2-5.31-1.93,5.31Z" transform="translate(147 29)" style="fill: #fff"/>
      <path d="M4.63-14V-28.32H7.44l5.86,9.56v-9.56H16V-14h-2.9L7.31-23.34V-14Z" transform="translate(147 29)" style="fill: #fff"/>
    </g>
    <rect width="15" height="15" style="fill: #fff"/>
  </g>
</svg>
