<svg id="katman_1" data-name="katman 1" xmlns="http://www.w3.org/2000/svg" width="22.47" height="22" viewBox="0 0 22.47 22">
  <defs>
    <style>
      .cls-1 {
        fill: #666;
      }
    </style>
  </defs>
  <title>github_icon</title>
  <path class="cls-1" d="M12.5,1.5a11.29,11.29,0,0,0-3.55,22c.56.1.77-.24.77-.54s0-1,0-1.92c-3.13.68-3.78-1.51-3.78-1.51a3,3,0,0,0-1.25-1.65c-1-.7.08-.69.08-.69a2.36,2.36,0,0,1,1.72,1.16,2.39,2.39,0,0,0,3.27.94,2.41,2.41,0,0,1,.71-1.51C8,17.48,5.33,16.51,5.33,12.19a4.37,4.37,0,0,1,1.16-3,4.07,4.07,0,0,1,.11-3s.94-.3,3.09,1.16a10.6,10.6,0,0,1,5.63,0c2.14-1.46,3.09-1.16,3.09-1.16a4.06,4.06,0,0,1,.11,3,4.36,4.36,0,0,1,1.15,3c0,4.33-2.63,5.29-5.13,5.57a2.7,2.7,0,0,1,.76,2.09c0,1.51,0,2.72,0,3.09s.2.65.77.54a11.29,11.29,0,0,0-3.56-22Z" transform="translate(-1.27 -1.5)"/>
</svg>
