<svg id="katman_1" data-name="katman 1" xmlns="http://www.w3.org/2000/svg" width="34.57" height="22" viewBox="0 0 34.57 22">
  <defs>
    <style>
      .cls-1 {
        fill: #666;
      }
    </style>
  </defs>
  <title>google_icon</title>
  <g>
    <path class="cls-1" d="M6.19,10.32v4.36h5.94C11.2,17.5,9.75,19,6.19,19A6.44,6.44,0,0,1-.22,12.5,6.44,6.44,0,0,1,6.19,6a6.21,6.21,0,0,1,4.26,1.61c.9-.9.83-1,3.13-3.21A11,11,0,1,0,6.19,23.5c9.06,0,11.28-7.91,10.55-13.18Z" transform="translate(4.79 -1.5)"/>
    <polygon class="cls-1" points="30.77 9.04 30.77 5.23 28.05 5.23 28.05 9.04 24.14 9.04 24.14 11.76 28.05 11.76 28.05 15.68 30.77 15.68 30.77 11.76 34.57 11.76 34.57 9.04 30.77 9.04"/>
  </g>
</svg>
