<svg id="katman_1" data-name="katman 1" xmlns="http://www.w3.org/2000/svg" width="24.2" height="22" viewBox="0 0 24.2 22">
  <defs>
    <style>
      .cls-1 {
        fill: #666;
      }
    </style>
  </defs>
  <title>linkedin_icon</title>
  <g id="LinkedIn">
    <rect class="cls-1" x="0.61" y="7.05" width="4.72" height="14.95"/>
    <path class="cls-1" d="M18.61,8.41c-2.7,0-4.4,1.46-4.71,2.49V8.55H8.61c.07,1.25,0,14.95,0,14.95h5.3V15.41A3.4,3.4,0,0,1,14,14.19a2.7,2.7,0,0,1,2.55-1.83c1.84,0,2.68,1.38,2.68,3.41V23.5H24.6V15.19C24.6,10.56,22,8.41,18.61,8.41Z" transform="translate(-0.4 -1.5)"/>
    <path class="cls-1" d="M3.28,1.5A2.63,2.63,0,0,0,.4,4.09,2.61,2.61,0,0,0,3.21,6.69h0a2.61,2.61,0,1,0,0-5.19Z" transform="translate(-0.4 -1.5)"/>
  </g>
</svg>
