<svg id="katman_1" data-name="katman 1" xmlns="http://www.w3.org/2000/svg" width="26.4" height="22" viewBox="0 0 26.4 22">
  <defs>
    <style>
      .cls-1 {
        fill: #666;
      }
    </style>
  </defs>
  <title>twitter_icon</title>
  <path id="Twitter" class="cls-1" d="M25,1.91a10.67,10.67,0,0,1-3.44,1.35,5.34,5.34,0,0,0-4-1.75,5.49,5.49,0,0,0-5.41,5.55,5.67,5.67,0,0,0,.14,1.26A15.25,15.25,0,0,1,1.14,2.51,5.65,5.65,0,0,0,.4,5.31,5.59,5.59,0,0,0,2.81,9.93,5.32,5.32,0,0,1,.36,9.24v.07a5.52,5.52,0,0,0,4.35,5.45,5.16,5.16,0,0,1-1.43.2,5.26,5.26,0,0,1-1-.1A5.44,5.44,0,0,0,7.32,18.7,10.69,10.69,0,0,1,.59,21.08,10.84,10.84,0,0,1-.7,21,15.08,15.08,0,0,0,7.6,23.5C17.57,23.5,23,15,23,7.7c0-.24,0-.48,0-.72A11.12,11.12,0,0,0,25.7,4.1,10.58,10.58,0,0,1,22.59,5,5.54,5.54,0,0,0,25,1.91Z" transform="translate(0.7 -1.5)"/>
</svg>
